<?xml version="1.0" encoding="UTF-8"?>
<svg xmlns="http://www.w3.org/2000/svg" xmlns:xlink="http://www.w3.org/1999/xlink" width="375pt" height="374.999991pt" viewBox="0 0 375 374.999991" version="1.2">
<defs>
<clipPath id="clip1">
  <path d="M 7.332031 8 L 361 8 L 361 374 L 7.332031 374 Z M 7.332031 8 "/>
</clipPath>
</defs>
<g id="surface1">
<g clip-path="url(#clip1)" clip-rule="nonzero">
<path style=" stroke:none;fill-rule:nonzero;fill:rgb(6.269836%,5.879211%,5.099487%);fill-opacity:1;" d="M 281.007812 312.65625 C 277.660156 312.65625 274.925781 315.390625 274.925781 318.738281 C 274.925781 342.210938 255.828125 361.3125 232.355469 361.3125 L 37.597656 361.3125 C 27.621094 361.3125 19.496094 353.1875 19.496094 343.207031 L 19.496094 63.304688 C 19.496094 39.835938 38.59375 20.734375 62.066406 20.734375 L 287.730469 20.734375 C 279.84375 28.457031 274.925781 39.242188 274.925781 51.144531 L 274.925781 160.613281 C 274.925781 163.964844 277.660156 166.695312 281.007812 166.695312 C 284.359375 166.695312 287.089844 163.964844 287.089844 160.613281 L 287.089844 51.144531 C 287.089844 34.371094 300.726562 20.734375 317.5 20.734375 C 334.269531 20.734375 347.90625 34.371094 347.90625 51.144531 L 347.90625 75.46875 C 347.90625 78.820312 345.175781 81.550781 341.824219 81.550781 L 311.417969 81.550781 C 308.066406 81.550781 305.335938 84.285156 305.335938 87.632812 C 305.335938 90.984375 308.066406 93.714844 311.417969 93.714844 L 341.824219 93.714844 C 351.898438 93.714844 360.070312 85.519531 360.070312 75.46875 L 360.070312 51.144531 C 360.070312 27.671875 340.96875 8.570312 317.5 8.570312 L 62.066406 8.570312 C 31.894531 8.570312 7.332031 33.113281 7.332031 63.304688 L 7.332031 343.207031 C 7.332031 359.886719 20.894531 373.472656 37.597656 373.472656 L 232.355469 373.472656 C 262.527344 373.472656 287.089844 348.910156 287.089844 318.738281 C 287.089844 315.390625 284.359375 312.65625 281.007812 312.65625 "/>
</g>
<path style=" stroke:none;fill-rule:nonzero;fill:rgb(6.269836%,5.879211%,5.099487%);fill-opacity:1;" d="M 55.984375 93.714844 L 55.984375 69.386719 L 80.3125 69.386719 L 80.3125 93.714844 Z M 92.476562 69.386719 C 92.476562 62.6875 87.011719 57.226562 80.3125 57.226562 L 55.984375 57.226562 C 49.285156 57.226562 43.820312 62.6875 43.820312 69.386719 L 43.820312 93.714844 C 43.820312 100.414062 49.285156 105.878906 55.984375 105.878906 L 80.3125 105.878906 C 87.011719 105.878906 92.476562 100.414062 92.476562 93.714844 L 92.476562 69.386719 "/>
<path style=" stroke:none;fill-rule:nonzero;fill:rgb(6.269836%,5.879211%,5.099487%);fill-opacity:1;" d="M 80.3125 142.367188 C 83.660156 142.367188 86.394531 139.636719 86.394531 136.289062 C 86.394531 132.9375 83.660156 130.207031 80.3125 130.207031 L 55.984375 130.207031 C 49.285156 130.207031 43.820312 135.667969 43.820312 142.367188 L 43.820312 166.695312 C 43.820312 173.394531 49.285156 178.859375 55.984375 178.859375 L 80.3125 178.859375 C 83.660156 178.859375 86.394531 176.128906 86.394531 172.777344 C 86.394531 169.429688 83.660156 166.695312 80.3125 166.695312 L 55.984375 166.695312 L 55.984375 142.367188 L 80.3125 142.367188 "/>
<path style=" stroke:none;fill-rule:nonzero;fill:rgb(6.269836%,5.879211%,5.099487%);fill-opacity:1;" d="M 55.984375 239.675781 L 55.984375 215.347656 L 80.3125 215.347656 L 80.3125 239.675781 Z M 92.476562 215.347656 C 92.476562 208.648438 87.011719 203.1875 80.3125 203.1875 L 55.984375 203.1875 C 49.285156 203.1875 43.820312 208.648438 43.820312 215.347656 L 43.820312 239.675781 C 43.820312 246.375 49.285156 251.839844 55.984375 251.839844 L 80.3125 251.839844 C 87.011719 251.839844 92.476562 246.375 92.476562 239.675781 L 92.476562 215.347656 "/>
<path style=" stroke:none;fill-rule:nonzero;fill:rgb(6.269836%,5.879211%,5.099487%);fill-opacity:1;" d="M 49.902344 282.25 C 46.554688 282.25 43.820312 284.980469 43.820312 288.332031 L 43.820312 312.65625 C 43.820312 319.355469 49.285156 324.820312 55.984375 324.820312 L 80.3125 324.820312 C 87.011719 324.820312 92.476562 319.355469 92.476562 312.65625 L 92.476562 288.332031 C 92.476562 284.980469 89.742188 282.25 86.394531 282.25 C 83.042969 282.25 80.3125 284.980469 80.3125 288.332031 L 80.3125 312.65625 L 55.984375 312.65625 L 55.984375 288.332031 C 55.984375 284.980469 53.253906 282.25 49.902344 282.25 "/>
<path style=" stroke:none;fill-rule:nonzero;fill:rgb(6.269836%,5.879211%,5.099487%);fill-opacity:1;" d="M 195.863281 93.714844 L 116.800781 93.714844 C 113.453125 93.714844 110.71875 96.445312 110.71875 99.796875 C 110.71875 103.148438 113.453125 105.878906 116.800781 105.878906 L 195.863281 105.878906 C 199.214844 105.878906 201.945312 103.148438 201.945312 99.796875 C 201.945312 96.445312 199.214844 93.714844 195.863281 93.714844 "/>
<path style=" stroke:none;fill-rule:nonzero;fill:rgb(6.269836%,5.879211%,5.099487%);fill-opacity:1;" d="M 116.800781 178.859375 L 135.046875 178.859375 C 138.398438 178.859375 141.128906 176.128906 141.128906 172.777344 C 141.128906 169.429688 138.398438 166.695312 135.046875 166.695312 L 116.800781 166.695312 C 113.453125 166.695312 110.71875 169.429688 110.71875 172.777344 C 110.71875 176.128906 113.453125 178.859375 116.800781 178.859375 "/>
<path style=" stroke:none;fill-rule:nonzero;fill:rgb(6.269836%,5.879211%,5.099487%);fill-opacity:1;" d="M 116.800781 312.65625 C 113.453125 312.65625 110.71875 315.390625 110.71875 318.738281 C 110.71875 322.089844 113.453125 324.820312 116.800781 324.820312 L 189.78125 324.820312 C 193.132812 324.820312 195.863281 322.089844 195.863281 318.738281 C 195.863281 315.390625 193.132812 312.65625 189.78125 312.65625 L 116.800781 312.65625 "/>
<path style=" stroke:none;fill-rule:nonzero;fill:rgb(6.269836%,5.879211%,5.099487%);fill-opacity:1;" d="M 208.027344 245.757812 C 208.027344 242.410156 205.296875 239.675781 201.945312 239.675781 L 116.800781 239.675781 C 113.453125 239.675781 110.71875 242.410156 110.71875 245.757812 C 110.71875 249.109375 113.453125 251.839844 116.800781 251.839844 L 201.945312 251.839844 C 205.296875 251.839844 208.027344 249.109375 208.027344 245.757812 "/>
<path style=" stroke:none;fill-rule:nonzero;fill:rgb(6.269836%,5.879211%,5.099487%);fill-opacity:1;" d="M 177.621094 142.367188 C 184.320312 142.367188 189.78125 147.832031 189.78125 154.53125 C 189.78125 157.882812 192.515625 160.613281 195.863281 160.613281 C 199.214844 160.613281 201.945312 157.882812 201.945312 154.53125 C 201.945312 143.222656 194.152344 133.792969 183.699219 131.0625 L 183.699219 124.125 C 183.699219 120.773438 180.96875 118.042969 177.621094 118.042969 C 174.269531 118.042969 171.539062 120.773438 171.539062 124.125 L 171.539062 131.0625 C 161.085938 133.792969 153.292969 143.222656 153.292969 154.53125 C 153.292969 167.953125 164.195312 178.859375 177.621094 178.859375 C 184.320312 178.859375 189.78125 184.324219 189.78125 191.023438 C 189.78125 197.722656 184.320312 203.1875 177.621094 203.1875 C 170.917969 203.1875 165.457031 197.722656 165.457031 191.023438 C 165.457031 187.671875 162.722656 184.941406 159.375 184.941406 C 156.023438 184.941406 153.292969 187.671875 153.292969 191.023438 C 153.292969 202.332031 161.085938 211.761719 171.539062 214.46875 L 171.539062 221.429688 C 171.539062 224.78125 174.269531 227.511719 177.621094 227.511719 C 180.96875 227.511719 183.699219 224.78125 183.699219 221.429688 L 183.699219 214.46875 C 194.152344 211.761719 201.945312 202.332031 201.945312 191.023438 C 201.945312 177.601562 191.042969 166.695312 177.621094 166.695312 C 170.917969 166.695312 165.457031 161.230469 165.457031 154.53125 C 165.457031 147.832031 170.917969 142.367188 177.621094 142.367188 "/>
<path style=" stroke:none;fill-rule:nonzero;fill:rgb(6.269836%,5.879211%,5.099487%);fill-opacity:1;" d="M 220.191406 166.695312 C 216.839844 166.695312 214.109375 169.429688 214.109375 172.777344 C 214.109375 176.128906 216.839844 178.859375 220.191406 178.859375 L 244.519531 178.859375 C 247.867188 178.859375 250.601562 176.128906 250.601562 172.777344 C 250.601562 169.429688 247.867188 166.695312 244.519531 166.695312 L 220.191406 166.695312 "/>
<path style=" stroke:none;fill-rule:nonzero;fill:rgb(6.269836%,5.879211%,5.099487%);fill-opacity:1;" d="M 341.230469 162.632812 L 280.414062 267.972656 L 259.34375 255.808594 L 320.160156 150.46875 L 325.433594 153.511719 L 335.957031 159.59375 Z M 247.628906 303.726562 C 247.082031 304.292969 246.230469 304.414062 245.5625 304.007812 C 245.539062 304.007812 245.539062 304.007812 245.539062 304.007812 C 244.875 303.628906 244.542969 302.820312 244.753906 302.0625 L 254.734375 267.1875 L 272.835938 277.640625 Z M 335.363281 124.125 C 338.714844 118.304688 346.171875 116.308594 351.96875 119.679688 C 357.789062 123.03125 359.785156 130.46875 356.4375 136.289062 L 347.3125 152.085938 L 336.765625 146.003906 L 326.242188 139.921875 Z M 363.113281 161.207031 L 357.835938 158.167969 L 366.960938 142.367188 C 373.660156 130.75 369.667969 115.855469 358.050781 109.132812 C 346.457031 102.433594 331.539062 106.425781 324.839844 118.042969 L 315.71875 133.839844 L 245.777344 254.976562 C 245.300781 255.808594 245.089844 256.6875 245.015625 257.566406 L 233.066406 298.710938 C 231.902344 302.773438 232.6875 306.957031 234.921875 310.257812 L 231.167969 316.765625 C 229.480469 319.6875 230.476562 323.394531 233.375 325.082031 C 234.351562 325.628906 235.394531 325.890625 236.417969 325.890625 C 238.53125 325.890625 240.574219 324.796875 241.691406 322.847656 L 245.492188 316.292969 C 245.800781 316.316406 246.109375 316.410156 246.394531 316.410156 C 250.078125 316.410156 253.6875 314.960938 256.371094 312.183594 L 286.996094 280.492188 L 287.066406 280.371094 C 287.375 280.0625 287.660156 279.707031 287.898438 279.300781 C 288.0625 279.042969 288.089844 278.734375 288.183594 278.449219 L 351.757812 168.691406 L 357.03125 171.757812 C 359.929688 173.417969 360.925781 177.148438 359.261719 180.046875 L 334.9375 222.191406 C 333.25 225.089844 334.246094 228.820312 337.144531 230.507812 C 338.121094 231.054688 339.164062 231.3125 340.1875 231.3125 C 342.300781 231.3125 344.34375 230.222656 345.460938 228.273438 L 369.789062 186.128906 C 374.824219 177.433594 371.832031 166.246094 363.113281 161.207031 "/>
</g>
</svg>
