<?xml version="1.0" encoding="UTF-8"?>
<svg xmlns="http://www.w3.org/2000/svg" xmlns:xlink="http://www.w3.org/1999/xlink" width="375pt" height="374.999991pt" viewBox="0 0 375 374.999991" version="1.2">
<defs>
<clipPath id="clip1">
  <path d="M 123 62.042969 L 246 62.042969 L 246 209 L 123 209 Z M 123 62.042969 "/>
</clipPath>
<clipPath id="clip2">
  <path d="M 26 216 L 350 216 L 350 374.59375 L 26 374.59375 Z M 26 216 "/>
</clipPath>
<clipPath id="clip3">
  <path d="M 155 353 L 206 353 L 206 374.59375 L 155 374.59375 Z M 155 353 "/>
</clipPath>
<clipPath id="clip4">
  <path d="M 206 364 L 215 364 L 215 374.59375 L 206 374.59375 Z M 206 364 "/>
</clipPath>
</defs>
<g id="surface1">
<g clip-path="url(#clip1)" clip-rule="nonzero">
<path style=" stroke:none;fill-rule:nonzero;fill:rgb(12.939453%,11.759949%,12.159729%);fill-opacity:1;" d="M 139.011719 139.121094 C 138.851562 140.175781 138.746094 141.25 138.746094 142.347656 C 138.746094 154.277344 148.417969 163.945312 160.347656 163.945312 C 167.996094 163.945312 174.65625 159.9375 178.492188 153.941406 C 181.929688 188.847656 161.058594 205.367188 156.785156 208.363281 C 166.839844 206.585938 177.167969 205.605469 187.722656 205.605469 C 197.8125 205.605469 207.757812 206.492188 217.507812 208.128906 C 199.800781 190.929688 198.882812 165.53125 199.851562 152.179688 C 204.546875 156.265625 210.664062 158.761719 217.382812 158.761719 C 232.179688 158.761719 244.171875 146.773438 244.171875 131.984375 C 244.171875 129.074219 243.695312 126.285156 242.835938 123.664062 C 244.785156 119.949219 245.898438 115.734375 245.898438 111.25 C 245.898438 96.460938 233.90625 84.46875 219.113281 84.46875 C 216.582031 84.46875 214.144531 84.84375 211.828125 85.5 C 207.90625 71.964844 194.875 62.011719 179.359375 62.011719 C 162.820312 62.011719 149.09375 73.316406 146.234375 88.21875 C 133.214844 90.042969 123.191406 101.191406 123.191406 114.707031 C 123.191406 125.585938 129.691406 134.929688 139.011719 139.121094 Z M 147.832031 99.617188 C 152.710938 98.933594 156.609375 95.222656 157.539062 90.386719 C 159.417969 80.613281 168.59375 73.519531 179.359375 73.519531 C 189.375 73.519531 198.179688 79.761719 200.765625 88.699219 C 202.226562 93.734375 206.824219 97.011719 211.820312 97.011719 C 212.855469 97.011719 213.910156 96.871094 214.953125 96.574219 C 216.355469 96.179688 217.753906 95.980469 219.113281 95.980469 C 227.535156 95.980469 234.386719 102.832031 234.386719 111.25 C 234.386719 113.730469 233.800781 116.109375 232.640625 118.316406 C 231.195312 121.066406 230.925781 124.285156 231.894531 127.238281 C 232.402344 128.792969 232.660156 130.386719 232.660156 131.984375 C 232.660156 140.402344 225.804688 147.253906 217.382812 147.253906 C 213.097656 147.253906 209.117188 145.5 206.175781 142.316406 C 203.996094 139.957031 200.929688 138.613281 197.71875 138.613281 L 180.484375 138.613281 C 175.730469 138.613281 171.460938 141.539062 169.746094 145.972656 C 168.230469 149.898438 164.539062 152.4375 160.347656 152.4375 C 154.785156 152.4375 150.257812 147.910156 150.257812 142.347656 C 150.257812 141.953125 150.304688 141.457031 150.398438 140.835938 C 151.167969 135.730469 148.441406 130.742188 143.734375 128.625 C 138.25 126.15625 134.703125 120.695312 134.703125 114.707031 C 134.703125 107.152344 140.347656 100.664062 147.832031 99.617188 Z M 147.832031 99.617188 "/>
</g>
<path style=" stroke:none;fill-rule:nonzero;fill:rgb(12.939453%,11.759949%,12.159729%);fill-opacity:1;" d="M 364.6875 187.921875 C 363.238281 186.828125 361.679688 185.988281 360.066406 185.359375 C 363.675781 175.902344 360.511719 164.558594 351.617188 157.847656 C 347.078125 154.425781 341.789062 152.765625 336.621094 152.765625 C 330.988281 152.765625 325.496094 154.738281 321.277344 158.550781 C 318.355469 156.925781 315.140625 156.136719 311.949219 156.136719 C 306.128906 156.136719 300.378906 158.765625 296.601562 163.773438 C 291.894531 170.011719 291.578125 178.179688 295.105469 184.613281 C 294.558594 185.152344 294.03125 185.71875 293.558594 186.351562 C 288.394531 193.1875 289.757812 202.917969 296.597656 208.078125 C 299.390625 210.183594 302.664062 211.199219 305.910156 211.199219 C 307.753906 211.199219 309.578125 210.835938 311.3125 210.195312 C 301.3125 226.550781 287.882812 230.710938 280.378906 231.703125 C 290.875 238.164062 300.746094 245.777344 309.863281 254.460938 C 309 238.53125 318.453125 225.140625 324.339844 218.414062 C 325.265625 222.789062 327.691406 226.867188 331.546875 229.773438 C 335.015625 232.390625 339.085938 233.652344 343.121094 233.652344 C 348.953125 233.652344 354.710938 231.015625 358.496094 226.003906 C 359.753906 224.335938 360.6875 222.527344 361.332031 220.652344 C 364.054688 219.367188 366.519531 217.433594 368.460938 214.863281 C 374.859375 206.378906 373.171875 194.320312 364.6875 187.921875 Z M 359.269531 207.929688 C 358.515625 208.929688 357.554688 209.707031 356.414062 210.246094 C 353.601562 211.574219 351.449219 213.980469 350.441406 216.917969 C 350.171875 217.707031 349.789062 218.429688 349.304688 219.070312 C 347.832031 221.023438 345.574219 222.144531 343.121094 222.144531 C 341.945312 222.144531 340.1875 221.875 338.480469 220.585938 C 336.148438 218.828125 335.589844 216.441406 335.464844 215.175781 C 335.144531 211.976562 333.507812 209.058594 330.941406 207.125 L 321.0625 199.671875 C 319.015625 198.132812 316.574219 197.351562 314.125 197.351562 C 312.027344 197.351562 309.921875 197.925781 308.054688 199.082031 C 307.414062 199.480469 306.671875 199.691406 305.910156 199.691406 C 305.308594 199.691406 304.410156 199.550781 303.53125 198.890625 C 302.378906 198.019531 302.0625 196.863281 301.980469 196.25 C 301.894531 195.636719 301.878906 194.433594 302.746094 193.285156 C 302.773438 193.25 302.878906 193.113281 303.164062 192.835938 C 306.851562 189.222656 307.683594 183.601562 305.203125 179.078125 C 303.734375 176.410156 303.96875 173.121094 305.792969 170.703125 C 307.257812 168.761719 309.503906 167.644531 311.949219 167.644531 C 313.257812 167.644531 314.550781 167.980469 315.6875 168.609375 C 317.4375 169.582031 319.363281 170.058594 321.273438 170.058594 C 324.0625 170.058594 326.828125 169.046875 328.996094 167.089844 C 331.003906 165.273438 333.710938 164.277344 336.621094 164.277344 C 339.5 164.277344 342.285156 165.230469 344.679688 167.035156 C 349.277344 170.503906 351.179688 176.351562 349.308594 181.257812 C 347.054688 187.167969 349.992188 193.789062 355.890625 196.085938 C 356.597656 196.359375 357.207031 196.695312 357.753906 197.109375 C 361.15625 199.675781 361.835938 204.527344 359.269531 207.929688 Z M 359.269531 207.929688 "/>
<path style=" stroke:none;fill-rule:nonzero;fill:rgb(12.939453%,11.759949%,12.159729%);fill-opacity:1;" d="M 33.132812 230.773438 C 37.167969 230.773438 41.238281 229.511719 44.707031 226.894531 C 48.554688 223.992188 50.980469 219.921875 51.90625 215.554688 C 58.078125 222.628906 68.175781 237.058594 66.113281 254.066406 C 76.242188 244.5 87.492188 236.117188 99.648438 229.125 C 94.039062 229.035156 77.03125 227 64.980469 207.332031 C 66.703125 207.960938 68.515625 208.320312 70.34375 208.320312 C 73.589844 208.320312 76.863281 207.304688 79.65625 205.199219 C 86.496094 200.039062 87.859375 190.308594 82.695312 183.46875 C 82.21875 182.839844 81.695312 182.273438 81.144531 181.734375 C 84.675781 175.300781 84.359375 167.128906 79.652344 160.890625 C 75.875 155.886719 70.125 153.257812 64.304688 153.257812 C 61.113281 153.257812 57.898438 154.046875 54.976562 155.667969 C 50.757812 151.859375 45.265625 149.886719 39.632812 149.886719 C 34.464844 149.886719 29.175781 151.546875 24.636719 154.96875 C 15.742188 161.679688 12.578125 173.023438 16.1875 182.480469 C 14.574219 183.105469 13.015625 183.945312 11.566406 185.039062 C 3.082031 191.4375 1.394531 203.5 7.792969 211.980469 C 9.734375 214.550781 12.199219 216.488281 14.921875 217.773438 C 15.566406 219.648438 16.5 221.457031 17.757812 223.121094 C 21.539062 228.136719 27.300781 230.773438 33.132812 230.773438 Z M 15.5 199.324219 C 15.785156 197.28125 16.851562 195.472656 18.5 194.226562 C 19.039062 193.820312 19.667969 193.476562 20.363281 193.207031 C 26.261719 190.910156 29.199219 184.285156 26.945312 178.375 C 25.074219 173.472656 26.976562 167.625 31.574219 164.15625 C 33.964844 162.351562 36.753906 161.398438 39.632812 161.398438 C 42.542969 161.398438 45.25 162.394531 47.257812 164.210938 C 49.425781 166.167969 52.1875 167.179688 54.980469 167.179688 C 56.890625 167.179688 58.816406 166.703125 60.566406 165.730469 C 61.703125 165.101562 62.996094 164.765625 64.304688 164.765625 C 66.75 164.765625 68.996094 165.878906 70.460938 167.824219 C 72.285156 170.242188 72.515625 173.527344 71.050781 176.199219 C 68.570312 180.722656 69.402344 186.34375 73.085938 189.957031 C 73.375 190.234375 73.480469 190.371094 73.503906 190.402344 C 74.375 191.554688 74.359375 192.753906 74.273438 193.367188 C 74.1875 193.980469 73.871094 195.140625 72.722656 196.011719 C 71.84375 196.671875 70.945312 196.808594 70.34375 196.808594 C 69.582031 196.808594 68.839844 196.601562 68.199219 196.203125 C 66.332031 195.046875 64.226562 194.472656 62.128906 194.472656 C 59.679688 194.472656 57.234375 195.25 55.191406 196.792969 L 45.3125 204.246094 C 42.746094 206.179688 41.105469 209.097656 40.789062 212.292969 C 40.664062 213.5625 40.105469 215.949219 37.773438 217.703125 C 36.066406 218.992188 34.308594 219.265625 33.132812 219.265625 C 30.675781 219.265625 28.421875 218.144531 26.949219 216.191406 C 26.464844 215.550781 26.082031 214.824219 25.8125 214.039062 C 24.804688 211.101562 22.652344 208.695312 19.839844 207.367188 C 18.699219 206.828125 17.738281 206.050781 16.984375 205.050781 C 15.742188 203.402344 15.214844 201.371094 15.5 199.324219 Z M 15.5 199.324219 "/>
<g clip-path="url(#clip2)" clip-rule="nonzero">
<path style=" stroke:none;fill-rule:nonzero;fill:rgb(12.939453%,11.759949%,12.159729%);fill-opacity:1;" d="M 341.425781 328.863281 C 341.011719 327.605469 340.59375 326.347656 340.152344 325.101562 C 318.269531 261.980469 258.3125 216.636719 187.722656 216.636719 C 101.769531 216.636719 31.566406 283.851562 26.722656 368.5625 C 26.535156 371.808594 29.070312 374.5625 32.320312 374.5625 L 32.609375 374.5625 C 35.617188 374.5625 38.035156 372.183594 38.210938 369.183594 C 40.171875 335.257812 53.472656 304.339844 74.382812 280.144531 C 74.820312 280.398438 75.257812 280.652344 75.582031 280.976562 C 81.320312 286.695312 74.027344 305.445312 74.960938 313.53125 C 75.828125 321.070312 85.328125 335.953125 82.410156 342.953125 C 78.007812 353.488281 70.199219 351.273438 59.417969 374.5625 L 72.253906 374.5625 C 76.527344 366.585938 80.046875 363.371094 83.0625 360.617188 C 86.429688 357.546875 90.246094 354.0625 93.035156 347.382812 C 96.65625 338.699219 92.707031 328.867188 89.222656 320.195312 C 88.164062 317.558594 86.5625 313.574219 86.398438 312.222656 C 86.261719 310.777344 87.050781 306.285156 87.574219 303.316406 C 87.613281 303.097656 87.652344 302.875 87.691406 302.652344 C 88.644531 308.457031 90.84375 313.796875 92.234375 316.769531 C 92.683594 317.734375 93.25 318.660156 93.949219 319.464844 C 98.5625 324.753906 103.328125 325.855469 106.5 325.855469 C 113.28125 325.855469 119.105469 320.933594 120.992188 313.609375 C 121.207031 312.773438 121.328125 311.914062 121.351562 311.050781 C 121.417969 308.640625 122.492188 307.492188 127.742188 304.222656 C 129.351562 303.222656 131.011719 302.1875 132.601562 300.910156 C 133.921875 299.84375 135.003906 298.609375 135.960938 297.523438 C 136.148438 297.308594 136.386719 297.035156 136.601562 296.800781 C 136.921875 296.652344 137.3125 296.484375 137.632812 296.347656 C 141.136719 294.828125 147.003906 292.289062 151.09375 286.101562 C 152.9375 283.3125 155.828125 277.796875 154.839844 271.777344 C 157.976562 268.226562 159.597656 263.46875 159.816406 259.039062 C 159.863281 258.097656 159.792969 257.15625 159.609375 256.230469 C 159.15625 253.933594 160.953125 251.777344 164.433594 248.601562 C 173.308594 240.503906 169.738281 233.550781 167.792969 230.941406 C 167.664062 230.765625 167.535156 230.59375 167.402344 230.425781 C 174.421875 229.402344 181.527344 228.882812 188.664062 228.882812 C 215.925781 228.882812 242.101562 236.296875 264.859375 249.992188 C 262.417969 252.503906 259.898438 255.359375 257.300781 258.304688 C 253.082031 263.089844 247.828125 269.042969 244.824219 270.96875 C 240.394531 273.804688 235.765625 275.183594 230.675781 275.183594 C 219.050781 275.183594 209.289062 267.863281 209.25 267.832031 C 207.386719 266.378906 205.117188 265.53125 202.757812 265.410156 C 202.238281 265.382812 201.722656 265.371094 201.21875 265.371094 C 183.910156 265.367188 173.914062 279.964844 169.382812 292.28125 C 164.953125 294.066406 161.488281 297.332031 159.554688 301.730469 C 156.574219 308.519531 157.8125 317.152344 162.511719 322.261719 C 163.019531 322.816406 163.535156 323.335938 164.054688 323.820312 C 156.671875 327.691406 149.675781 332.429688 145.578125 335.355469 C 143.144531 337.09375 141.269531 339.589844 140.648438 342.511719 C 140.234375 344.460938 140.324219 346.386719 140.832031 348.160156 C 138.320312 348.992188 135.871094 350.453125 133.90625 353.035156 C 129.308594 359.0625 128.070312 367.597656 130.550781 374.5625 L 144.476562 374.5625 C 139.578125 371.628906 140.007812 364.015625 143.0625 360.015625 C 145.242188 357.144531 155.421875 359.960938 157.023438 356.726562 C 160.746094 349.214844 151.902344 344.988281 151.902344 344.988281 C 151.902344 344.988281 174.253906 328.941406 183.429688 328.941406 C 183.800781 328.941406 184.152344 328.96875 184.476562 329.023438 L 198.90625 326.207031 C 198.90625 326.207031 200.769531 311.648438 206.816406 311.648438 C 206.816406 311.648438 190.0625 311.648438 201.699219 295.6875 C 201.699219 295.6875 200.621094 295.210938 199.210938 295.210938 C 196.171875 295.210938 191.585938 297.402344 192.855469 311.179688 C 193.175781 314.664062 189.894531 325.824219 186.953125 325.824219 C 186.585938 325.824219 186.222656 325.652344 185.875 325.269531 C 180.757812 319.632812 182.777344 316.734375 180.292969 315.40625 C 180.128906 315.320312 179.972656 315.28125 179.816406 315.28125 C 178.671875 315.28125 177.667969 317.386719 175.664062 317.386719 C 174.511719 317.386719 173.023438 316.683594 170.984375 314.46875 C 168.625 311.902344 167.765625 302.242188 177.71875 302.242188 C 177.953125 302.242188 178.1875 302.25 178.433594 302.257812 C 178.433594 302.257812 183.816406 276.878906 201.21875 276.878906 C 201.527344 276.878906 201.84375 276.886719 202.164062 276.90625 C 202.164062 276.90625 214.703125 286.691406 230.675781 286.691406 C 237.105469 286.691406 244.089844 285.105469 251.035156 280.660156 C 258.078125 276.148438 267.71875 263.09375 274.976562 256.175781 C 281.554688 260.90625 287.8125 266.171875 293.652344 272.011719 C 318.859375 297.207031 333.941406 329.808594 336.945312 364.90625 C 336.980469 365.414062 337.222656 367.300781 337.4375 369.390625 C 337.742188 372.324219 340.210938 374.5625 343.164062 374.5625 L 343.433594 374.5625 C 346.804688 374.5625 349.414062 371.679688 349.175781 368.320312 C 348.253906 355.222656 345.773438 342.558594 341.945312 330.492188 C 341.777344 329.945312 341.597656 329.40625 341.425781 328.863281 Z M 89.316406 287.835938 C 89.214844 282.214844 87.839844 276.9375 83.707031 272.820312 C 83.660156 272.773438 83.609375 272.722656 83.5625 272.675781 C 83.875 272.363281 84.191406 272.046875 84.507812 271.738281 C 85.773438 273.996094 87.558594 275.878906 89.765625 277.167969 C 90.964844 277.867188 92.257812 278.332031 93.585938 278.566406 C 93.675781 280.210938 93.707031 281.511719 93.703125 282.53125 C 91.902344 283.9375 90.414062 285.726562 89.316406 287.835938 Z M 148.316406 258.46875 C 148.316406 258.46875 148.003906 264.726562 143.664062 265.667969 C 143.664062 265.667969 139.027344 266.277344 139.011719 267.542969 C 138.964844 270.660156 147.355469 270.882812 141.488281 279.75 C 138.386719 284.445312 132.921875 285.449219 130.011719 287.265625 C 128.609375 288.136719 126.648438 290.921875 125.359375 291.960938 C 120.621094 295.773438 110.15625 299.15625 109.839844 310.738281 C 109.839844 310.738281 108.914062 314.347656 106.5 314.347656 C 105.5 314.347656 104.25 313.730469 102.710938 311.992188 C 102.710938 311.992188 93.710938 292.894531 102.710938 290.707031 C 102.710938 290.707031 102.859375 290.804688 103.089844 290.804688 C 104.085938 290.804688 106.566406 288.933594 104.277344 268.796875 C 104.277344 268.796875 103.777344 265.484375 100.519531 265.484375 C 99.296875 265.484375 97.6875 265.949219 95.574219 267.230469 C 94.113281 266.375 93.425781 263.691406 94.183594 261.054688 C 111 247.574219 130.765625 237.648438 152.359375 232.402344 C 154.484375 233.460938 156.597656 235.175781 158.554688 237.808594 C 159.488281 239.058594 145.835938 245.945312 148.316406 258.46875 Z M 148.316406 258.46875 "/>
</g>
<g clip-path="url(#clip3)" clip-rule="nonzero">
<path style=" stroke:none;fill-rule:nonzero;fill:rgb(12.939453%,11.759949%,12.159729%);fill-opacity:1;" d="M 184.476562 353.90625 C 183.902344 353.855469 183.34375 353.828125 182.796875 353.828125 C 168.382812 353.828125 164.675781 371.175781 157.023438 374.097656 C 156.550781 374.277344 156.117188 374.414062 155.667969 374.5625 L 185.871094 374.5625 C 184.027344 372.566406 181.082031 370.566406 176.441406 369.976562 C 179.128906 366.558594 180.714844 365.339844 182.796875 365.339844 C 183.011719 365.339844 183.234375 365.351562 183.453125 365.371094 C 185.621094 365.5625 189.488281 369.613281 192.597656 374.5625 L 205.671875 374.5625 C 204.304688 371.652344 195.980469 354.933594 184.476562 353.90625 Z M 184.476562 353.90625 "/>
</g>
<g clip-path="url(#clip4)" clip-rule="nonzero">
<path style=" stroke:none;fill-rule:nonzero;fill:rgb(12.939453%,11.759949%,12.159729%);fill-opacity:1;" d="M 210.082031 364.707031 L 206.082031 374.5625 L 214.917969 374.5625 C 212.476562 372.707031 210.597656 369.652344 210.082031 364.707031 Z M 210.082031 364.707031 "/>
</g>
</g>
</svg>
