<?xml version="1.0" encoding="UTF-8"?>
<svg xmlns="http://www.w3.org/2000/svg" xmlns:xlink="http://www.w3.org/1999/xlink" width="375pt" height="374.999991pt" viewBox="0 0 375 374.999991" version="1.2">
<defs>
<clipPath id="clip1">
  <path d="M 160 21.101562 L 216 21.101562 L 216 77 L 160 77 Z M 160 21.101562 "/>
</clipPath>
<clipPath id="clip2">
  <path d="M 309 170 L 364.550781 170 L 364.550781 226 L 309 226 Z M 309 170 "/>
</clipPath>
<clipPath id="clip3">
  <path d="M 10.550781 170 L 67 170 L 67 226 L 10.550781 226 Z M 10.550781 170 "/>
</clipPath>
</defs>
<g id="surface1">
<path style=" stroke:none;fill-rule:nonzero;fill:rgb(0%,0%,0%);fill-opacity:1;" d="M 281.792969 109.351562 C 283.175781 109.351562 284.554688 108.800781 285.660156 107.695312 L 313.003906 80.074219 C 315.214844 77.863281 315.214844 74.550781 313.003906 72.339844 C 310.796875 70.128906 307.480469 70.128906 305.269531 72.339844 C 305.269531 72.339844 277.925781 99.6875 277.925781 99.960938 C 274.613281 103.277344 277.097656 109.351562 281.792969 109.351562 Z M 281.792969 109.351562 "/>
<path style=" stroke:none;fill-rule:nonzero;fill:rgb(0%,0%,0%);fill-opacity:1;" d="M 89.546875 288.339844 L 61.925781 315.683594 C 59.71875 317.894531 59.71875 321.207031 61.925781 323.417969 C 64.136719 325.628906 67.726562 325.628906 69.660156 323.417969 L 97.28125 296.074219 C 99.492188 293.863281 99.492188 290.550781 97.28125 288.339844 C 95.074219 286.128906 91.757812 286.128906 89.546875 288.339844 Z M 89.546875 288.339844 "/>
<path style=" stroke:none;fill-rule:nonzero;fill:rgb(0%,0%,0%);fill-opacity:1;" d="M 285.660156 288.339844 C 283.449219 286.128906 280.136719 286.128906 277.925781 288.339844 C 275.714844 290.550781 275.714844 293.863281 277.925781 296.074219 C 277.925781 296.074219 305.269531 323.417969 305.269531 323.417969 C 307.480469 325.628906 311.070312 325.628906 313.003906 323.417969 C 315.214844 321.207031 315.214844 317.894531 313.003906 315.683594 Z M 285.660156 288.339844 "/>
<path style=" stroke:none;fill-rule:nonzero;fill:rgb(0%,0%,0%);fill-opacity:1;" d="M 69.660156 72.339844 C 67.453125 70.128906 64.136719 70.128906 61.925781 72.339844 C 59.71875 74.550781 59.71875 77.863281 61.925781 80.074219 L 89.546875 107.695312 C 91.757812 109.90625 95.347656 109.90625 97.28125 107.695312 C 99.492188 105.484375 99.492188 102.171875 97.28125 99.960938 Z M 69.660156 72.339844 "/>
<path style=" stroke:none;fill-rule:nonzero;fill:rgb(0%,0%,0%);fill-opacity:1;" d="M 131.53125 77.035156 C 132.636719 79.796875 135.953125 81.179688 138.714844 80.074219 C 141.476562 78.96875 142.859375 75.65625 141.753906 72.894531 L 133.191406 52.453125 C 132.085938 49.691406 128.769531 48.308594 126.007812 49.414062 C 123.246094 50.519531 121.867188 53.835938 122.96875 56.597656 C 122.96875 56.597656 131.53125 77.035156 131.53125 77.035156 Z M 131.53125 77.035156 "/>
<path style=" stroke:none;fill-rule:nonzero;fill:rgb(0%,0%,0%);fill-opacity:1;" d="M 41.761719 143.605469 L 62.203125 152.167969 C 64.964844 153.269531 68.28125 151.890625 69.386719 149.128906 C 70.488281 146.367188 69.109375 143.050781 66.347656 141.945312 L 45.90625 133.382812 C 43.144531 132.277344 39.832031 133.660156 38.726562 136.421875 C 37.621094 139.183594 39 142.5 41.761719 143.605469 Z M 41.761719 143.605469 "/>
<path style=" stroke:none;fill-rule:nonzero;fill:rgb(0%,0%,0%);fill-opacity:1;" d="M 69.660156 246.90625 C 68.554688 244.144531 65.242188 242.765625 62.480469 243.867188 L 42.039062 252.429688 C 39.277344 253.535156 37.898438 256.851562 39 259.613281 C 40.105469 262.375 43.421875 263.757812 46.183594 262.652344 L 66.621094 254.089844 C 69.386719 252.984375 70.765625 249.667969 69.660156 246.90625 Z M 69.660156 246.90625 "/>
<path style=" stroke:none;fill-rule:nonzero;fill:rgb(0%,0%,0%);fill-opacity:1;" d="M 138.714844 315.960938 C 135.953125 314.855469 132.636719 316.238281 131.53125 319 L 122.96875 339.4375 C 121.867188 342.199219 123.246094 345.515625 126.007812 346.621094 C 128.769531 347.726562 132.085938 346.34375 133.191406 343.582031 L 141.753906 323.140625 C 142.859375 320.378906 141.476562 317.066406 138.714844 315.960938 Z M 138.714844 315.960938 "/>
<path style=" stroke:none;fill-rule:nonzero;fill:rgb(0%,0%,0%);fill-opacity:1;" d="M 243.675781 319 C 242.570312 316.238281 239.257812 314.855469 236.492188 315.960938 C 233.730469 317.066406 232.351562 320.378906 233.457031 323.140625 C 233.457031 323.140625 242.019531 343.582031 242.019531 343.582031 C 243.125 346.34375 246.4375 347.726562 249.199219 346.621094 C 251.960938 345.515625 253.34375 342.199219 252.238281 339.4375 Z M 243.675781 319 "/>
<path style=" stroke:none;fill-rule:nonzero;fill:rgb(0%,0%,0%);fill-opacity:1;" d="M 333.445312 252.429688 L 313.003906 243.867188 C 310.242188 242.765625 306.929688 244.144531 305.824219 246.90625 C 304.71875 249.667969 306.101562 252.984375 308.863281 254.089844 L 329.300781 262.652344 C 332.0625 263.757812 335.378906 262.375 336.484375 259.613281 C 337.589844 256.851562 336.207031 253.535156 333.445312 252.429688 Z M 333.445312 252.429688 "/>
<path style=" stroke:none;fill-rule:nonzero;fill:rgb(0%,0%,0%);fill-opacity:1;" d="M 305.546875 149.128906 C 306.652344 151.890625 309.964844 153.269531 312.730469 152.167969 L 333.167969 143.605469 C 335.929688 142.5 337.3125 139.183594 336.207031 136.421875 C 335.101562 133.660156 331.789062 132.277344 329.027344 133.382812 L 308.585938 141.945312 C 305.824219 143.050781 304.441406 146.367188 305.546875 149.128906 Z M 305.546875 149.128906 "/>
<path style=" stroke:none;fill-rule:nonzero;fill:rgb(0%,0%,0%);fill-opacity:1;" d="M 236.492188 80.074219 C 239.257812 81.179688 242.570312 79.796875 243.675781 77.035156 L 252.238281 56.597656 C 253.34375 53.835938 251.960938 50.519531 249.199219 49.414062 C 246.4375 48.308594 243.125 49.691406 242.019531 52.453125 L 233.457031 72.894531 C 232.351562 75.65625 233.730469 78.96875 236.492188 80.074219 Z M 236.492188 80.074219 "/>
<g clip-path="url(#clip1)" clip-rule="nonzero">
<path style=" stroke:none;fill-rule:nonzero;fill:rgb(0%,0%,0%);fill-opacity:1;" d="M 170.753906 56.871094 L 168.546875 70.128906 C 168.269531 72.339844 169.097656 74.273438 170.753906 75.65625 C 172.414062 76.761719 174.898438 77.035156 176.554688 75.929688 L 187.605469 69.855469 L 198.652344 75.929688 C 200.585938 77.035156 202.796875 76.761719 204.453125 75.65625 C 206.109375 74.550781 206.9375 72.339844 206.664062 70.128906 L 204.453125 56.871094 L 213.566406 47.480469 C 214.949219 46.101562 215.5 43.890625 214.949219 41.957031 C 214.398438 40.023438 212.464844 38.640625 210.53125 38.367188 L 198.101562 36.433594 L 192.574219 24.554688 C 191.746094 22.347656 189.8125 21.242188 187.605469 21.242188 C 185.394531 21.242188 183.460938 22.347656 182.632812 24.28125 L 177.109375 36.15625 L 164.679688 38.089844 C 162.746094 38.367188 160.8125 39.746094 160.257812 41.679688 C 159.707031 43.613281 159.984375 45.824219 161.640625 47.207031 Z M 181.527344 46.652344 C 183.460938 46.375 184.84375 45.273438 185.671875 43.613281 L 187.605469 39.746094 L 189.539062 43.613281 C 190.367188 45.273438 191.746094 46.375 193.679688 46.652344 L 198.375 47.480469 L 194.785156 51.070312 C 193.679688 52.453125 193.128906 54.109375 193.40625 55.769531 L 194.234375 60.464844 L 190.367188 58.53125 C 189.539062 57.976562 188.710938 57.976562 187.605469 57.976562 C 186.5 57.976562 185.671875 58.253906 184.84375 58.53125 L 181.25 60.464844 L 182.078125 55.769531 C 182.355469 54.109375 181.804688 52.175781 180.699219 51.070312 L 177.109375 47.480469 Z M 181.527344 46.652344 "/>
</g>
<path style=" stroke:none;fill-rule:nonzero;fill:rgb(0%,0%,0%);fill-opacity:1;" d="M 210.53125 336.402344 L 198.101562 334.46875 L 192.574219 322.589844 C 191.746094 320.65625 189.8125 319.550781 187.605469 319.550781 C 185.394531 319.550781 183.460938 320.65625 182.632812 322.589844 L 177.109375 334.46875 L 164.679688 336.402344 C 162.746094 336.675781 160.8125 338.058594 160.257812 339.992188 C 159.707031 341.925781 159.984375 344.132812 161.640625 345.515625 L 170.753906 354.90625 L 168.546875 368.164062 C 168.269531 370.375 169.097656 372.308594 170.753906 373.6875 C 172.414062 374.792969 174.898438 375.070312 176.554688 373.964844 L 187.605469 367.890625 C 187.605469 367.890625 198.652344 373.964844 198.652344 373.964844 C 200.308594 375.070312 202.796875 374.792969 204.453125 373.6875 C 206.109375 372.585938 206.9375 370.375 206.664062 368.164062 L 204.453125 354.90625 L 213.566406 345.515625 C 214.949219 344.132812 215.5 341.925781 214.949219 339.992188 C 214.398438 338.332031 212.464844 336.675781 210.53125 336.402344 Z M 194.785156 349.382812 C 193.679688 350.761719 193.128906 352.421875 193.40625 354.078125 L 194.234375 358.773438 L 190.640625 356.839844 C 189.8125 356.289062 188.984375 356.289062 187.878906 356.289062 C 186.777344 356.289062 185.945312 356.5625 185.117188 356.839844 L 181.527344 358.773438 L 182.355469 354.078125 C 182.632812 352.421875 182.078125 350.488281 180.976562 349.382812 L 177.382812 345.792969 L 182.078125 344.964844 C 184.011719 344.6875 185.394531 343.582031 186.222656 341.925781 L 188.15625 338.058594 L 190.089844 341.925781 C 190.917969 343.582031 192.300781 344.6875 194.234375 344.964844 L 198.929688 345.792969 Z M 194.785156 349.382812 "/>
<g clip-path="url(#clip2)" clip-rule="nonzero">
<path style=" stroke:none;fill-rule:nonzero;fill:rgb(0%,0%,0%);fill-opacity:1;" d="M 364.105469 191.113281 C 363.550781 189.179688 361.617188 187.796875 359.683594 187.519531 L 347.253906 185.589844 L 341.730469 173.710938 C 340.902344 171.777344 338.96875 170.671875 336.757812 170.671875 C 334.550781 170.671875 332.617188 171.777344 331.789062 173.710938 L 326.261719 185.589844 L 313.832031 187.519531 C 311.898438 187.796875 309.964844 189.179688 309.414062 191.113281 C 308.863281 193.046875 309.136719 195.253906 310.796875 196.636719 L 319.910156 206.027344 L 317.699219 219.285156 C 317.425781 221.496094 318.253906 223.429688 319.910156 224.808594 C 321.566406 225.914062 324.054688 226.191406 325.710938 225.085938 L 336.757812 219.011719 L 347.808594 225.085938 C 349.742188 226.191406 351.949219 225.914062 353.609375 224.808594 C 355.265625 223.707031 356.09375 221.496094 355.816406 219.285156 L 353.609375 206.027344 L 362.722656 196.636719 C 364.378906 195.253906 364.65625 193.046875 364.105469 191.113281 Z M 343.941406 200.226562 C 342.835938 201.609375 342.285156 203.265625 342.558594 204.921875 L 343.386719 209.617188 L 339.796875 207.683594 C 338.96875 207.132812 338.140625 207.132812 337.035156 207.132812 C 335.929688 207.132812 335.101562 207.410156 334.273438 207.683594 L 330.683594 209.617188 L 331.511719 204.921875 C 331.789062 203.265625 331.234375 201.332031 330.128906 200.226562 L 326.539062 196.636719 L 331.234375 195.808594 C 333.167969 195.53125 334.550781 194.425781 335.378906 192.769531 L 337.3125 188.902344 L 339.246094 192.769531 C 340.074219 194.425781 341.453125 195.53125 343.386719 195.808594 L 348.085938 196.636719 Z M 343.941406 200.226562 "/>
</g>
<g clip-path="url(#clip3)" clip-rule="nonzero">
<path style=" stroke:none;fill-rule:nonzero;fill:rgb(0%,0%,0%);fill-opacity:1;" d="M 49.496094 225.085938 C 51.429688 226.191406 53.640625 225.914062 55.296875 224.808594 C 56.957031 223.707031 57.785156 221.496094 57.507812 219.285156 L 55.296875 206.027344 L 64.414062 196.636719 C 65.792969 195.253906 66.347656 193.046875 65.792969 191.113281 C 65.242188 189.179688 63.308594 187.796875 61.375 187.519531 L 48.945312 185.589844 L 43.421875 173.710938 C 42.59375 171.777344 40.660156 170.671875 38.449219 170.671875 C 36.238281 170.671875 34.304688 171.777344 33.476562 173.710938 L 27.953125 185.589844 L 15.523438 187.519531 C 13.589844 187.796875 11.65625 189.179688 11.105469 191.113281 C 10.550781 193.046875 10.828125 195.253906 12.484375 196.636719 L 21.601562 206.027344 L 19.390625 219.285156 C 19.113281 221.496094 19.941406 223.429688 21.601562 224.808594 C 23.257812 225.914062 25.742188 226.191406 27.402344 225.085938 L 38.449219 219.011719 Z M 32.097656 209.894531 L 32.925781 204.921875 C 33.199219 203.265625 32.648438 201.332031 31.542969 200.226562 L 27.953125 196.636719 L 32.648438 195.808594 C 34.582031 195.53125 35.964844 194.425781 36.792969 192.769531 L 38.726562 188.902344 L 40.660156 192.769531 C 41.488281 194.425781 42.867188 195.53125 44.800781 195.808594 L 49.496094 196.636719 L 45.90625 200.226562 C 44.800781 201.609375 44.25 203.265625 44.527344 204.921875 L 45.355469 209.617188 L 41.210938 207.683594 C 40.382812 207.132812 39.554688 207.132812 38.449219 207.132812 C 37.34375 207.132812 36.515625 207.410156 35.6875 207.683594 Z M 32.097656 209.894531 "/>
</g>
<path style=" stroke:none;fill-rule:nonzero;fill:rgb(0%,0%,0%);fill-opacity:1;" d="M 148.933594 239.449219 C 148.933594 239.8125 148.898438 240.171875 148.828125 240.527344 C 148.757812 240.882812 148.652344 241.226562 148.515625 241.5625 C 148.375 241.898438 148.203125 242.21875 148.003906 242.519531 C 147.800781 242.820312 147.574219 243.097656 147.316406 243.355469 C 147.058594 243.613281 146.78125 243.839844 146.480469 244.042969 C 146.175781 244.246094 145.859375 244.414062 145.523438 244.554688 C 145.1875 244.691406 144.84375 244.796875 144.488281 244.867188 C 144.132812 244.9375 143.773438 244.972656 143.410156 244.972656 C 143.046875 244.972656 142.6875 244.9375 142.332031 244.867188 C 141.976562 244.796875 141.632812 244.691406 141.296875 244.554688 C 140.960938 244.414062 140.640625 244.246094 140.339844 244.042969 C 140.039062 243.839844 139.761719 243.613281 139.503906 243.355469 C 139.246094 243.097656 139.019531 242.820312 138.816406 242.519531 C 138.617188 242.21875 138.445312 241.898438 138.304688 241.5625 C 138.167969 241.226562 138.0625 240.882812 137.992188 240.527344 C 137.921875 240.171875 137.886719 239.8125 137.886719 239.449219 C 137.886719 239.085938 137.921875 238.726562 137.992188 238.371094 C 138.0625 238.015625 138.167969 237.671875 138.304688 237.335938 C 138.445312 237 138.617188 236.683594 138.816406 236.378906 C 139.019531 236.078125 139.246094 235.800781 139.503906 235.542969 C 139.761719 235.285156 140.039062 235.058594 140.339844 234.855469 C 140.640625 234.65625 140.960938 234.484375 141.296875 234.347656 C 141.632812 234.207031 141.976562 234.101562 142.332031 234.03125 C 142.6875 233.960938 143.046875 233.925781 143.410156 233.925781 C 143.773438 233.925781 144.132812 233.960938 144.488281 234.03125 C 144.84375 234.101562 145.1875 234.207031 145.523438 234.347656 C 145.859375 234.484375 146.175781 234.65625 146.480469 234.855469 C 146.78125 235.058594 147.058594 235.285156 147.316406 235.542969 C 147.574219 235.800781 147.800781 236.078125 148.003906 236.378906 C 148.203125 236.683594 148.375 237 148.515625 237.335938 C 148.652344 237.671875 148.757812 238.015625 148.828125 238.371094 C 148.898438 238.726562 148.933594 239.085938 148.933594 239.449219 Z M 148.933594 239.449219 "/>
<path style=" stroke:none;fill-rule:nonzero;fill:rgb(0%,0%,0%);fill-opacity:1;" d="M 240.914062 164.871094 C 240.914062 164.871094 240.636719 164.871094 240.914062 164.871094 L 222.132812 164.871094 C 222.683594 153.269531 222.40625 139.738281 214.398438 130.898438 C 211.359375 127.582031 205.558594 123.441406 196.167969 123.441406 C 190.640625 123.441406 185.945312 125.097656 182.355469 129.515625 C 179.316406 133.382812 177.9375 138.355469 178.488281 143.328125 C 178.765625 144.707031 180.421875 156.308594 179.316406 159.347656 L 166.886719 173.160156 C 166.613281 173.160156 121.3125 173.160156 121.3125 173.160156 C 118.273438 173.160156 115.789062 175.644531 115.789062 178.683594 L 115.789062 261.546875 C 115.789062 264.585938 118.273438 267.070312 121.3125 267.070312 L 165.507812 267.070312 C 168.546875 267.070312 171.03125 264.585938 171.03125 261.546875 L 230.695312 261.546875 C 235.664062 261.546875 240.359375 259.335938 243.953125 255.746094 C 247.542969 251.878906 249.753906 246.632812 249.476562 241.105469 C 249.476562 240.003906 249.199219 238.898438 249.199219 237.792969 C 249.199219 237.792969 249.476562 237.515625 249.476562 237.515625 C 253.066406 233.648438 255.277344 228.402344 255 222.875 C 255 221.21875 254.722656 219.285156 254.171875 217.628906 C 257.484375 214.039062 259.144531 209.066406 259.144531 203.816406 C 259.144531 200.78125 258.316406 197.742188 257.210938 194.980469 C 258.589844 192.21875 259.144531 188.902344 259.144531 185.589844 C 259.144531 175.367188 252.238281 164.871094 240.914062 164.871094 Z M 159.984375 256.023438 L 126.835938 256.023438 L 126.835938 184.207031 L 159.984375 184.207031 Z M 243.953125 195.53125 C 246.714844 196.914062 248.371094 200.226562 248.371094 204.09375 C 248.371094 208.789062 245.332031 212.65625 241.191406 212.933594 C 240.636719 212.933594 240.359375 212.933594 240.085938 213.484375 C 240.085938 213.761719 240.085938 214.039062 240.359375 214.3125 C 242.570312 216.523438 243.953125 219.839844 244.226562 223.152344 C 244.226562 228.125 240.914062 231.992188 236.492188 231.992188 C 236.492188 231.992188 235.113281 232.542969 236.21875 234.203125 C 237.597656 236.136719 238.703125 238.34375 238.703125 241.105469 C 238.703125 246.078125 235.390625 249.945312 230.96875 249.945312 L 171.03125 250.5 L 171.03125 185.3125 L 188.984375 165.148438 C 192.574219 157.964844 190.367188 149.402344 189.539062 141.945312 C 189.261719 138.632812 191.195312 135.039062 194.234375 134.765625 C 195.0625 134.765625 195.613281 134.765625 196.167969 134.765625 C 214.398438 134.765625 211.632812 158.519531 210.53125 173.160156 C 210.53125 174.816406 211.632812 176.195312 213.015625 176.195312 L 240.636719 176.195312 C 245.054688 176.195312 248.09375 181.445312 248.09375 186.417969 C 248.09375 190.007812 246.160156 193.046875 243.398438 194.703125 C 242.847656 194.703125 243.398438 195.53125 243.953125 195.53125 Z M 243.953125 195.53125 "/>
</g>
</svg>
