<?xml version="1.0" encoding="UTF-8"?>
<svg xmlns="http://www.w3.org/2000/svg" xmlns:xlink="http://www.w3.org/1999/xlink" width="375pt" height="374.999991pt" viewBox="0 0 375 374.999991" version="1.2">
<defs>
<clipPath id="clip1">
  <path d="M 303 15 L 359.4375 15 L 359.4375 70 L 303 70 Z M 303 15 "/>
</clipPath>
</defs>
<g id="surface1">
<path style=" stroke:none;fill-rule:nonzero;fill:rgb(6.269836%,5.879211%,5.099487%);fill-opacity:1;" d="M 162.402344 152.550781 C 163.199219 152.550781 163.996094 152.402344 164.765625 152.105469 C 186.53125 143.394531 200.613281 122.667969 200.613281 99.261719 L 200.613281 94.84375 C 200.613281 75.183594 213.296875 58.183594 232.179688 52.523438 L 259.738281 44.257812 C 263.121094 43.242188 265.039062 39.714844 264.019531 36.363281 C 263.023438 32.988281 259.464844 31.078125 256.109375 32.097656 L 228.519531 40.359375 C 204.21875 47.609375 187.875 69.527344 187.875 94.84375 L 187.875 99.261719 C 187.875 117.429688 176.953125 133.539062 160.039062 140.289062 C 156.78125 141.605469 155.1875 145.304688 156.484375 148.554688 C 157.476562 151.039062 159.867188 152.550781 162.402344 152.550781 "/>
<path style=" stroke:none;fill-rule:nonzero;fill:rgb(6.269836%,5.879211%,5.099487%);fill-opacity:1;" d="M 129.566406 95.984375 L 137.179688 122.519531 C 137.976562 125.324219 140.539062 127.136719 143.296875 127.136719 C 143.871094 127.136719 144.46875 127.0625 145.039062 126.886719 C 148.421875 125.917969 150.386719 122.417969 149.417969 119.042969 L 141.832031 92.484375 C 138.945312 82.457031 139.941406 71.785156 144.617188 62.476562 C 152.230469 47.261719 152.230469 29.09375 144.617188 13.878906 L 142.628906 9.90625 C 141.058594 6.777344 137.230469 5.511719 134.070312 7.078125 C 130.9375 8.640625 129.667969 12.460938 131.234375 15.613281 L 133.222656 19.585938 C 139.070312 31.226562 139.070312 45.125 133.222656 56.769531 C 127.128906 68.953125 125.835938 82.878906 129.566406 95.984375 "/>
<path style=" stroke:none;fill-rule:nonzero;fill:rgb(6.269836%,5.879211%,5.099487%);fill-opacity:1;" d="M 334.988281 108.71875 C 336.28125 105.441406 334.664062 101.769531 331.378906 100.476562 C 328.121094 99.1875 324.414062 100.800781 323.148438 104.078125 L 312.648438 130.832031 C 305.4375 149.152344 287.375 160.296875 267.773438 158.757812 L 263.347656 158.386719 C 239.9375 156.449219 218.097656 168.761719 207.652344 189.683594 C 206.082031 192.835938 207.351562 196.660156 210.511719 198.222656 C 211.433594 198.667969 212.378906 198.894531 213.347656 198.894531 C 215.6875 198.894531 217.925781 197.601562 219.042969 195.367188 C 227.179688 179.109375 244.191406 169.605469 262.300781 171.042969 L 266.730469 171.414062 C 291.976562 173.425781 315.238281 159.054688 324.488281 135.476562 L 334.988281 108.71875 "/>
<path style=" stroke:none;fill-rule:nonzero;fill:rgb(6.269836%,5.879211%,5.099487%);fill-opacity:1;" d="M 337.425781 231.929688 L 341.230469 234.238281 C 342.25 234.859375 343.394531 235.15625 344.539062 235.15625 C 346.679688 235.15625 348.792969 234.0625 349.988281 232.101562 C 351.804688 229.101562 350.859375 225.203125 347.847656 223.367188 L 344.042969 221.058594 C 329.464844 212.246094 311.332031 210.730469 295.535156 217.085938 C 285.808594 220.984375 275.085938 221.082031 265.3125 217.410156 L 239.417969 207.679688 C 236.132812 206.414062 232.453125 208.101562 231.207031 211.378906 C 229.964844 214.652344 231.628906 218.328125 234.914062 219.570312 L 260.808594 229.296875 C 273.59375 234.089844 287.601562 233.964844 300.261719 228.875 C 312.375 224.035156 326.257812 225.179688 337.425781 231.929688 "/>
<path style=" stroke:none;fill-rule:nonzero;fill:rgb(6.269836%,5.879211%,5.099487%);fill-opacity:1;" d="M 270.660156 89.011719 C 277.675781 89.011719 283.394531 94.71875 283.394531 101.71875 C 283.394531 108.71875 277.675781 114.425781 270.660156 114.425781 C 263.644531 114.425781 257.925781 108.71875 257.925781 101.71875 C 257.925781 94.71875 263.644531 89.011719 270.660156 89.011719 Z M 245.1875 101.71875 C 245.1875 115.742188 256.605469 127.136719 270.660156 127.136719 C 284.714844 127.136719 296.132812 115.742188 296.132812 101.71875 C 296.132812 87.695312 284.714844 76.300781 270.660156 76.300781 C 256.605469 76.300781 245.1875 87.695312 245.1875 101.71875 "/>
<path style=" stroke:none;fill-rule:nonzero;fill:rgb(6.269836%,5.879211%,5.099487%);fill-opacity:1;" d="M 327.972656 311.40625 C 320.957031 311.40625 315.238281 305.699219 315.238281 298.699219 C 315.238281 291.699219 320.957031 285.988281 327.972656 285.988281 C 334.988281 285.988281 340.707031 291.699219 340.707031 298.699219 C 340.707031 305.699219 334.988281 311.40625 327.972656 311.40625 Z M 327.972656 273.28125 C 313.917969 273.28125 302.5 284.675781 302.5 298.699219 C 302.5 312.722656 313.917969 324.113281 327.972656 324.113281 C 342.027344 324.113281 353.445312 312.722656 353.445312 298.699219 C 353.445312 284.675781 342.027344 273.28125 327.972656 273.28125 "/>
<path style=" stroke:none;fill-rule:nonzero;fill:rgb(6.269836%,5.879211%,5.099487%);fill-opacity:1;" d="M 85.984375 108.074219 C 93 108.074219 98.722656 113.78125 98.722656 120.78125 C 98.722656 127.78125 93 133.488281 85.984375 133.488281 C 78.972656 133.488281 73.25 127.78125 73.25 120.78125 C 73.25 113.78125 78.972656 108.074219 85.984375 108.074219 Z M 85.984375 146.199219 C 100.039062 146.199219 111.457031 134.804688 111.457031 120.78125 C 111.457031 106.757812 100.039062 95.363281 85.984375 95.363281 C 71.933594 95.363281 60.515625 106.757812 60.515625 120.78125 C 60.515625 134.804688 71.933594 146.199219 85.984375 146.199219 "/>
<path style=" stroke:none;fill-rule:nonzero;fill:rgb(6.269836%,5.879211%,5.099487%);fill-opacity:1;" d="M 312.375 178.640625 L 299.640625 184.992188 C 296.503906 186.558594 295.238281 190.378906 296.804688 193.53125 C 297.921875 195.742188 300.160156 197.03125 302.5 197.03125 C 303.46875 197.03125 304.441406 196.808594 305.359375 196.359375 L 318.097656 190.007812 C 321.230469 188.441406 322.5 184.621094 320.933594 181.46875 C 319.367188 178.339844 315.535156 177.074219 312.375 178.640625 "/>
<path style=" stroke:none;fill-rule:nonzero;fill:rgb(6.269836%,5.879211%,5.099487%);fill-opacity:1;" d="M 181.507812 31.824219 C 185.015625 31.824219 187.875 28.96875 187.875 25.46875 L 187.875 6.40625 C 187.875 2.90625 185.015625 0.0507812 181.507812 0.0507812 C 178 0.0507812 175.140625 2.90625 175.140625 6.40625 L 175.140625 25.46875 C 175.140625 28.96875 178 31.824219 181.507812 31.824219 "/>
<path style=" stroke:none;fill-rule:nonzero;fill:rgb(6.269836%,5.879211%,5.099487%);fill-opacity:1;" d="M 270.660156 292.34375 L 245.1875 292.34375 C 241.679688 292.34375 238.820312 295.199219 238.820312 298.699219 C 238.820312 302.199219 241.679688 305.050781 245.1875 305.050781 L 270.660156 305.050781 C 274.167969 305.050781 277.027344 302.199219 277.027344 298.699219 C 277.027344 295.199219 274.167969 292.34375 270.660156 292.34375 "/>
<path style=" stroke:none;fill-rule:nonzero;fill:rgb(6.269836%,5.879211%,5.099487%);fill-opacity:1;" d="M 211.332031 145.875 C 212.003906 146.097656 212.675781 146.199219 213.347656 146.199219 C 216.007812 146.199219 218.496094 144.511719 219.390625 141.855469 L 225.761719 122.792969 C 226.855469 119.464844 225.0625 115.867188 221.730469 114.75 C 218.371094 113.632812 214.789062 115.445312 213.671875 118.769531 L 207.304688 137.832031 C 206.207031 141.160156 208 144.757812 211.332031 145.875 "/>
<g clip-path="url(#clip1)" clip-rule="nonzero">
<path style=" stroke:none;fill-rule:nonzero;fill:rgb(6.269836%,5.879211%,5.099487%);fill-opacity:1;" d="M 339.265625 45.027344 C 338.222656 46.269531 337.722656 47.855469 337.796875 49.445312 L 338.097656 54.011719 L 333.816406 52.351562 C 333.070312 52.050781 332.277344 51.902344 331.480469 51.902344 C 330.683594 51.902344 329.886719 52.050781 329.140625 52.351562 L 324.886719 54.011719 L 325.160156 49.46875 C 325.261719 47.855469 324.738281 46.269531 323.71875 45.027344 L 320.808594 41.503906 L 325.261719 40.359375 C 326.804688 39.964844 328.171875 38.972656 329.015625 37.605469 L 331.480469 33.757812 L 333.941406 37.605469 C 334.8125 38.972656 336.15625 39.964844 337.722656 40.359375 L 342.175781 41.503906 Z M 359.515625 35.867188 C 358.816406 33.808594 357.152344 32.21875 355.035156 31.675781 L 343.34375 28.671875 L 336.851562 18.519531 C 334.515625 14.84375 328.445312 14.84375 326.105469 18.519531 L 319.640625 28.671875 L 307.949219 31.675781 C 305.832031 32.21875 304.140625 33.808594 303.46875 35.867188 C 302.800781 37.929688 303.222656 40.210938 304.613281 41.875 L 312.300781 51.183594 L 311.554688 63.195312 C 311.429688 65.378906 312.402344 67.464844 314.167969 68.730469 C 315.285156 69.527344 316.605469 69.949219 317.921875 69.949219 C 318.695312 69.949219 319.488281 69.800781 320.238281 69.5 L 331.480469 65.082031 L 342.722656 69.5 C 344.738281 70.296875 347.027344 69.996094 348.792969 68.730469 C 350.558594 67.464844 351.554688 65.378906 351.40625 63.222656 L 350.683594 51.183594 L 358.371094 41.875 C 359.738281 40.210938 360.160156 37.929688 359.515625 35.867188 "/>
</g>
<path style=" stroke:none;fill-rule:nonzero;fill:rgb(6.269836%,5.879211%,5.099487%);fill-opacity:1;" d="M 215.535156 343.175781 C 214.019531 343.773438 212.824219 344.914062 212.128906 346.355469 L 210.164062 350.5 L 207.253906 347 C 206.207031 345.757812 204.765625 344.9375 203.148438 344.742188 L 198.597656 344.167969 L 201.058594 340.296875 C 201.90625 338.933594 202.226562 337.292969 201.929688 335.707031 L 201.082031 331.214844 L 205.511719 332.355469 C 207.078125 332.753906 208.71875 332.527344 210.136719 331.757812 L 214.167969 329.550781 L 214.46875 334.117188 C 214.566406 335.730469 215.261719 337.246094 216.457031 338.335938 L 219.789062 341.488281 Z M 227.003906 330.816406 L 226.234375 318.777344 C 226.082031 316.617188 224.839844 314.683594 222.949219 313.617188 C 221.058594 312.574219 218.71875 312.574219 216.804688 313.617188 L 206.234375 319.421875 L 194.515625 316.445312 C 192.402344 315.898438 190.164062 316.46875 188.597656 317.957031 C 187.003906 319.472656 186.28125 321.65625 186.707031 323.792969 L 188.945312 335.632812 L 182.503906 345.808594 C 181.332031 347.644531 181.183594 349.953125 182.105469 351.914062 C 183.050781 353.875 184.914062 355.214844 187.054688 355.511719 L 199.042969 357.027344 L 206.753906 366.285156 C 207.972656 367.75 209.789062 368.59375 211.65625 368.59375 C 211.929688 368.59375 212.203125 368.570312 212.453125 368.542969 C 214.617188 368.269531 216.480469 366.929688 217.425781 364.945312 L 222.578125 354.046875 L 233.792969 349.605469 C 235.808594 348.785156 237.300781 347.023438 237.699219 344.890625 C 238.097656 342.730469 237.402344 340.546875 235.808594 339.058594 L 227.003906 330.816406 "/>
<path style=" stroke:none;fill-rule:nonzero;fill:rgb(6.269836%,5.879211%,5.099487%);fill-opacity:1;" d="M 38.625 203.113281 C 40.066406 202.367188 41.136719 201.101562 41.683594 199.585938 L 43.175781 195.242188 L 46.460938 198.445312 C 47.628906 199.5625 49.171875 200.207031 50.761719 200.234375 L 55.363281 200.332031 L 53.351562 204.429688 C 52.628906 205.890625 52.503906 207.554688 52.953125 209.09375 L 54.296875 213.460938 L 49.742188 212.816406 C 48.152344 212.59375 46.535156 212.964844 45.214844 213.882812 L 41.460938 216.515625 L 40.664062 212 C 40.390625 210.410156 39.519531 208.996094 38.226562 208.003906 L 34.570312 205.246094 Z M 34.417969 233.292969 C 35.214844 233.617188 36.035156 233.765625 36.882812 233.765625 C 38.152344 233.765625 39.417969 233.394531 40.515625 232.625 L 50.441406 225.75 L 62.378906 227.460938 C 64.519531 227.785156 66.707031 226.964844 68.125 225.300781 C 69.542969 223.664062 70.015625 221.40625 69.394531 219.320312 L 65.886719 207.804688 L 71.210938 196.980469 C 72.15625 195.046875 72.054688 192.738281 70.9375 190.875 C 69.792969 189.015625 67.800781 187.871094 65.613281 187.824219 L 53.550781 187.574219 L 44.890625 179.183594 C 43.324219 177.671875 41.085938 177.050781 38.972656 177.570312 C 36.859375 178.066406 35.140625 179.605469 34.445312 181.667969 L 30.464844 193.035156 L 19.792969 198.667969 C 17.851562 199.6875 16.585938 201.597656 16.410156 203.78125 C 16.234375 205.941406 17.179688 208.050781 18.921875 209.367188 L 28.550781 216.640625 L 30.589844 228.503906 C 30.988281 230.640625 32.40625 232.449219 34.417969 233.292969 "/>
<path style=" stroke:none;fill-rule:nonzero;fill:rgb(6.269836%,5.879211%,5.099487%);fill-opacity:1;" d="M 162.453125 300.757812 C 134.367188 309.917969 104.34375 306.441406 79.019531 291.523438 L 90.238281 268.144531 C 109.171875 280.527344 131.257812 286.980469 153.523438 286.980469 C 167.851562 286.980469 182.253906 284.328125 195.886719 278.890625 L 226.53125 266.652344 C 227.351562 266.332031 228.023438 265.808594 228.621094 265.214844 L 231.308594 267.894531 Z M 122.203125 319.945312 C 120.8125 320.339844 119.394531 320.640625 118 320.960938 C 116.855469 321.234375 115.710938 321.558594 114.542969 321.78125 C 112.925781 322.105469 111.285156 322.328125 109.640625 322.550781 C 108.621094 322.699219 107.601562 322.898438 106.582031 323.023438 C 104.890625 323.222656 103.175781 323.296875 101.484375 323.417969 C 100.511719 323.492188 99.519531 323.59375 98.546875 323.644531 C 96.90625 323.691406 95.238281 323.644531 93.597656 323.644531 C 92.554688 323.617188 91.507812 323.667969 90.464844 323.617188 C 88.972656 323.570312 87.527344 323.417969 86.0625 323.269531 C 84.84375 323.171875 83.625 323.121094 82.402344 322.996094 C 81.160156 322.824219 79.917969 322.601562 78.671875 322.402344 C 77.253906 322.179688 75.835938 322.003906 74.445312 321.707031 C 73.398438 321.507812 72.355469 321.210938 71.335938 320.960938 C 69.742188 320.613281 68.175781 320.265625 66.609375 319.84375 C 66.285156 319.746094 65.960938 319.597656 65.613281 319.523438 L 73.449219 303.164062 C 73.722656 303.316406 73.996094 303.488281 74.246094 303.636719 C 75.117188 304.132812 76.011719 304.554688 76.882812 305.027344 C 78.398438 305.847656 79.941406 306.664062 81.507812 307.410156 C 82.527344 307.90625 83.574219 308.328125 84.59375 308.773438 C 86.0625 309.421875 87.480469 310.042969 88.945312 310.636719 C 90.039062 311.058594 91.136719 311.429688 92.253906 311.828125 C 93.699219 312.347656 95.117188 312.847656 96.582031 313.316406 C 97.703125 313.664062 98.820312 313.988281 99.964844 314.285156 C 101.410156 314.707031 102.902344 315.105469 104.367188 315.453125 C 105.511719 315.726562 106.632812 315.972656 107.753906 316.195312 C 109.269531 316.496094 110.785156 316.792969 112.304688 317.039062 C 113.421875 317.214844 114.542969 317.386719 115.664062 317.535156 C 117.203125 317.734375 118.773438 317.910156 120.339844 318.035156 C 121.433594 318.132812 122.527344 318.257812 123.648438 318.304688 C 124.21875 318.355469 124.792969 318.429688 125.363281 318.457031 Z M 48.574219 355.089844 L 60.117188 331.039062 C 69.292969 333.945312 78.671875 335.679688 88.148438 336.226562 Z M 104.59375 238.210938 C 123.421875 248.0625 144.167969 253.125 165.066406 253.125 C 178.894531 253.125 192.800781 250.917969 206.207031 246.472656 L 208.945312 245.554688 L 219.269531 255.882812 L 191.160156 267.101562 C 159.714844 279.636719 123.671875 275.515625 95.785156 256.578125 Z M 118.671875 208.847656 C 132.253906 219.917969 148.96875 225.773438 166.109375 225.773438 C 172.824219 225.773438 179.617188 224.804688 186.308594 222.96875 L 198.722656 235.355469 C 169.144531 244.191406 137.429688 241.015625 110.140625 226.644531 Z M 135.960938 172.757812 L 175.535156 212.246094 C 157.105469 215.027344 138.496094 209.515625 124.417969 196.832031 Z M 248.445312 270.824219 C 248.792969 268.789062 248.148438 266.703125 246.679688 265.238281 L 138.621094 157.417969 C 137.15625 155.953125 135.113281 155.28125 133.023438 155.65625 C 131.011719 156.003906 129.246094 157.292969 128.375 159.15625 L 29.296875 365.863281 C 28.125 368.269531 28.625 371.175781 30.539062 373.085938 C 31.757812 374.300781 33.375 374.949219 35.042969 374.949219 C 35.960938 374.949219 36.90625 374.75 37.777344 374.328125 L 127.105469 331.710938 C 127.105469 331.710938 127.128906 331.710938 127.128906 331.710938 L 167.476562 312.425781 L 244.9375 275.464844 C 246.804688 274.597656 248.097656 272.835938 248.445312 270.824219 "/>
</g>
</svg>
