<?xml version="1.0" encoding="UTF-8"?>
<svg xmlns="http://www.w3.org/2000/svg" xmlns:xlink="http://www.w3.org/1999/xlink" width="375pt" height="374.999991pt" viewBox="0 0 375 374.999991" version="1.2">
<defs>
<clipPath id="clip1">
  <path d="M 100 1.742188 L 185 1.742188 L 185 86 L 100 86 Z M 100 1.742188 "/>
</clipPath>
<clipPath id="clip2">
  <path d="M 190 1.742188 L 276 1.742188 L 276 86 L 190 86 Z M 190 1.742188 "/>
</clipPath>
<clipPath id="clip3">
  <path d="M 55.363281 89 L 319.804688 89 L 319.804688 375 L 55.363281 375 Z M 55.363281 89 "/>
</clipPath>
</defs>
<g id="surface1">
<g clip-path="url(#clip1)" clip-rule="nonzero">
<path style=" stroke:none;fill-rule:nonzero;fill:rgb(0%,0%,0%);fill-opacity:1;" d="M 142.132812 14.714844 C 158.203125 14.714844 171.273438 27.789062 171.273438 43.851562 C 171.273438 59.921875 158.203125 72.988281 142.132812 72.988281 C 126.0625 72.988281 112.988281 59.921875 112.988281 43.851562 C 112.988281 27.789062 126.0625 14.714844 142.132812 14.714844 Z M 142.132812 85.960938 C 165.355469 85.960938 184.246094 67.070312 184.246094 43.851562 C 184.246094 20.636719 165.355469 1.742188 142.132812 1.742188 C 118.910156 1.742188 100.015625 20.636719 100.015625 43.851562 C 100.015625 67.070312 118.910156 85.960938 142.132812 85.960938 "/>
</g>
<g clip-path="url(#clip2)" clip-rule="nonzero">
<path style=" stroke:none;fill-rule:nonzero;fill:rgb(0%,0%,0%);fill-opacity:1;" d="M 233.070312 14.714844 C 249.140625 14.714844 262.210938 27.789062 262.210938 43.851562 C 262.210938 59.921875 249.140625 72.988281 233.070312 72.988281 C 217.003906 72.988281 203.929688 59.921875 203.929688 43.851562 C 203.929688 27.789062 217.003906 14.714844 233.070312 14.714844 Z M 233.070312 85.960938 C 256.292969 85.960938 275.1875 67.070312 275.1875 43.851562 C 275.1875 20.636719 256.292969 1.742188 233.070312 1.742188 C 209.851562 1.742188 190.960938 20.636719 190.960938 43.851562 C 190.960938 67.070312 209.851562 85.960938 233.070312 85.960938 "/>
</g>
<g clip-path="url(#clip3)" clip-rule="nonzero">
<path style=" stroke:none;fill-rule:nonzero;fill:rgb(0%,0%,0%);fill-opacity:1;" d="M 293.65625 126.601562 C 289.65625 125.351562 286.605469 121.578125 286.246094 117.410156 C 285.980469 114.339844 286.871094 111.75 288.382812 109.769531 C 288.386719 109.761719 288.394531 109.757812 288.398438 109.75 C 289.949219 107.730469 292.144531 106.355469 294.429688 105.789062 L 306.914062 120.714844 C 305.820312 123.160156 303.707031 125.304688 300.976562 126.386719 C 300.972656 126.390625 300.964844 126.390625 300.960938 126.394531 C 298.835938 127.230469 296.335938 127.421875 293.65625 126.601562 Z M 80.746094 105.789062 C 85.261719 106.914062 89.460938 111.199219 88.921875 117.410156 C 88.558594 121.578125 85.515625 125.351562 81.519531 126.59375 C 78.96875 127.386719 76.589844 127.25 74.535156 126.542969 C 74.492188 126.519531 74.453125 126.492188 74.40625 126.46875 C 74.085938 126.316406 73.757812 126.195312 73.421875 126.097656 C 71.078125 124.988281 69.273438 123.117188 68.304688 121.109375 Z M 318.753906 126.007812 C 320.65625 121.761719 319.9375 116.628906 316.933594 112.929688 L 304.410156 97.5 C 301.410156 93.800781 296.519531 92.050781 291.988281 93.039062 C 288.398438 93.816406 285.152344 95.394531 282.40625 97.550781 C 279.167969 95.238281 275.769531 93.148438 272.238281 91.308594 C 269.0625 89.660156 265.148438 90.894531 263.492188 94.070312 C 261.835938 97.253906 263.070312 101.164062 266.253906 102.820312 C 269.203125 104.359375 272.039062 106.121094 274.753906 108.046875 C 273.535156 111.304688 273.003906 114.867188 273.320312 118.527344 C 274.140625 127.957031 280.765625 136.175781 289.8125 138.988281 C 292.179688 139.71875 294.582031 140.070312 296.949219 140.070312 C 297.949219 140.070312 298.941406 139.996094 299.925781 139.875 C 303.371094 148.402344 305.121094 157.425781 305.121094 166.789062 L 305.121094 197.371094 C 305.121094 209.789062 296.5625 220.242188 285.027344 223.144531 L 285.027344 165.691406 C 285.027344 162.109375 282.125 159.207031 278.542969 159.207031 C 274.960938 159.207031 272.054688 162.109375 272.054688 165.691406 L 272.054688 230.164062 L 261.433594 362.273438 L 239.558594 362.273438 L 239.558594 259.484375 C 239.558594 255.902344 236.652344 253 233.070312 253 C 229.488281 253 226.585938 255.902344 226.585938 259.484375 L 226.585938 362.273438 L 194.089844 362.273438 L 194.089844 122.121094 C 194.089844 118.535156 191.1875 115.632812 187.601562 115.632812 C 184.019531 115.632812 181.113281 118.535156 181.113281 122.121094 L 181.113281 362.273438 L 148.621094 362.273438 L 148.621094 259.484375 C 148.621094 255.902344 145.71875 253 142.132812 253 C 138.550781 253 135.644531 255.902344 135.644531 259.484375 L 135.644531 362.273438 L 113.769531 362.273438 L 103.148438 230.164062 L 103.148438 165.691406 C 103.148438 162.109375 100.246094 159.207031 96.664062 159.207031 C 93.082031 159.207031 90.175781 162.109375 90.175781 165.691406 L 90.175781 223.144531 C 78.644531 220.242188 70.082031 209.789062 70.082031 197.371094 L 70.082031 166.789062 C 70.082031 157.429688 71.832031 148.402344 75.277344 139.878906 C 76.25 139.992188 77.230469 140.066406 78.21875 140.066406 C 80.585938 140.066406 82.992188 139.71875 85.363281 138.980469 C 94.40625 136.175781 101.03125 127.957031 101.847656 118.53125 C 102.164062 114.871094 101.632812 111.308594 100.417969 108.046875 C 103.636719 105.761719 107.03125 103.738281 110.578125 102 C 113.792969 100.433594 115.128906 96.546875 113.558594 93.328125 C 111.984375 90.109375 108.101562 88.777344 104.878906 90.347656 C 100.65625 92.40625 96.609375 94.828125 92.777344 97.5625 C 90.03125 95.402344 86.78125 93.820312 83.183594 93.039062 C 78.640625 92.050781 73.761719 93.800781 70.757812 97.5 L 58.234375 112.929688 C 55.230469 116.628906 54.519531 121.757812 56.414062 126.007812 C 58.007812 129.578125 60.410156 132.570312 63.308594 134.867188 C 59.199219 144.988281 57.105469 155.695312 57.105469 166.789062 L 57.105469 197.371094 C 57.105469 217.136719 71.679688 233.558594 90.636719 236.464844 L 101.316406 369.277344 C 101.589844 372.648438 104.402344 375.242188 107.78125 375.242188 L 267.421875 375.242188 C 270.800781 375.242188 273.617188 372.648438 273.886719 369.277344 L 284.566406 236.464844 C 303.527344 233.558594 318.097656 217.136719 318.097656 197.371094 L 318.097656 166.789062 C 318.097656 155.683594 316.003906 144.96875 311.882812 134.84375 C 314.773438 132.550781 317.164062 129.570312 318.753906 126.007812 "/>
</g>
</g>
</svg>
